<svg xmlns="http://www.w3.org/2000/svg" viewBox="0 0 108 74">
  <defs>
    <linearGradient id="cyl" x1="0" y1="0" x2="1" y2="0">
      <stop offset="0" stop-color="#948c72"/>
      <stop offset="0.10" stop-color="#b9b299"/>
      <stop offset="0.32" stop-color="#f4f1e6"/>
      <stop offset="0.55" stop-color="#dcd7c4"/>
      <stop offset="0.85" stop-color="#b9b299"/>
      <stop offset="1" stop-color="#948c72"/>
    </linearGradient>
    <linearGradient id="flute" x1="0" y1="0" x2="1" y2="0">
      <stop offset="0" stop-color="rgba(0,0,0,0.50)"/>
      <stop offset="0.25" stop-color="rgba(0,0,0,0.18)"/>
      <stop offset="0.55" stop-color="rgba(255,255,255,0.10)"/>
      <stop offset="0.80" stop-color="rgba(255,255,255,0.22)"/>
      <stop offset="1" stop-color="rgba(0,0,0,0.30)"/>
    </linearGradient>
    <linearGradient id="ring" x1="0" y1="0" x2="0" y2="1">
      <stop offset="0" stop-color="#f4f1e6"/>
      <stop offset="0.45" stop-color="#dcd7c4"/>
      <stop offset="1" stop-color="#948c72"/>
    </linearGradient>
    <linearGradient id="ringup" x1="0" y1="0" x2="0" y2="1">
      <stop offset="0" stop-color="#948c72"/>
      <stop offset="0.5" stop-color="#dcd7c4"/>
      <stop offset="1" stop-color="#f4f1e6"/>
    </linearGradient>
    <filter id="grain" x="0" y="0" width="100%" height="100%">
      <feTurbulence type="fractalNoise" baseFrequency="0.9" numOctaves="2"
                    stitchTiles="stitch" result="n"/>
      <feColorMatrix in="n" type="matrix"
        values="0 0 0 0 0  0 0 0 0 0  0 0 0 0 0  0.4 0.4 0.4 0 0"/>
      <feComposite operator="in" in2="SourceGraphic"/>
    </filter>
  </defs>
  <!-- abacus slab -->
  <rect x="0" y="0" width="108" height="16" fill="url(#ring)" rx="2"/>
  <rect x="0" y="0" width="108" height="2.5" fill="rgba(255,255,255,0.65)" rx="1"/>
  <rect x="0" y="14" width="108" height="2" fill="rgba(0,0,0,0.45)"/>
  <!-- echinus: bulging cushion from abacus down to shaft width -->
  <path d="M 2 16 C 6 30 18 34 22 36 L 86 36 C 90 34 102 30 106 16 Z" fill="url(#ring)"/>
  <path d="M 2 16 C 6 30 18 34 22 36 L 86 36 C 90 34 102 30 106 16 Z" fill="url(#cyl)" opacity="0.35"/>
  <!-- annulets -->
  <rect x="18" y="36" width="72" height="3" fill="url(#ringup)"/>
  <rect x="16" y="40" width="76" height="3" fill="url(#ring)"/>
  <!-- necking: start of fluted shaft -->
  <g transform="translate(0,44)">
    <rect x="6" y="0" width="96" height="30" fill="url(#cyl)"/>
    <g transform="scale(0.888,1) translate(6.8,0)"><rect x="1" y="0" width="16" height="30" fill="url(#flute)"/>
    <rect x="0" y="0" width="1.2" height="30" fill="rgba(255,255,255,0.16)"/>
    <rect x="19" y="0" width="16" height="30" fill="url(#flute)"/>
    <rect x="18" y="0" width="1.2" height="30" fill="rgba(255,255,255,0.16)"/>
    <rect x="37" y="0" width="16" height="30" fill="url(#flute)"/>
    <rect x="36" y="0" width="1.2" height="30" fill="rgba(255,255,255,0.16)"/>
    <rect x="55" y="0" width="16" height="30" fill="url(#flute)"/>
    <rect x="54" y="0" width="1.2" height="30" fill="rgba(255,255,255,0.16)"/>
    <rect x="73" y="0" width="16" height="30" fill="url(#flute)"/>
    <rect x="72" y="0" width="1.2" height="30" fill="rgba(255,255,255,0.16)"/>
    <rect x="91" y="0" width="16" height="30" fill="url(#flute)"/>
    <rect x="90" y="0" width="1.2" height="30" fill="rgba(255,255,255,0.16)"/>
    <rect x="107" y="0" width="1" height="30" fill="rgba(0,0,0,0.4)"/></g>
  </g>
  <rect x="0" y="16" width="108" height="4" fill="rgba(0,0,0,0.35)"/>
  <rect x="0" y="0" width="108" height="74" filter="url(#grain)" opacity="0.05"/>
</svg>